<svg xmlns="http://www.w3.org/2000/svg" xmlns:xlink="http://www.w3.org/1999/xlink" width="1200" zoomAndPan="magnify" viewBox="0 0 900 269.999989" height="360" preserveAspectRatio="xMidYMid meet" version="1.0"><defs><g/><clipPath id="6e5b8f58f1"><rect x="0" width="890" y="0" height="123"/></clipPath></defs><g transform="matrix(1, 0, 0, 1, 5, 73)"><g clip-path="url(#6e5b8f58f1)"><g fill="#0d1b2a" fill-opacity="1"><g transform="translate(0.41029, 86.311772)"><g><path d="M 25.703125 1.0625 C 16.597656 1.0625 9.113281 -2.191406 3.25 -8.703125 L 11.46875 -16.84375 C 15.488281 -12.175781 20.503906 -9.84375 26.515625 -9.84375 C 29.722656 -9.84375 32.164062 -10.519531 33.84375 -11.875 C 35.53125 -13.226562 36.375 -15.101562 36.375 -17.5 C 36.375 -19.394531 35.816406 -20.910156 34.703125 -22.046875 C 33.585938 -23.179688 31.675781 -23.941406 28.96875 -24.328125 L 23.1875 -25.140625 C 11.09375 -26.816406 5.046875 -32.703125 5.046875 -42.796875 C 5.046875 -46.316406 5.9375 -49.429688 7.71875 -52.140625 C 9.507812 -54.859375 12.070312 -56.960938 15.40625 -58.453125 C 18.75 -59.941406 22.671875 -60.6875 27.171875 -60.6875 C 35.847656 -60.6875 42.679688 -57.84375 47.671875 -52.15625 L 39.453125 -44.015625 C 37.878906 -45.859375 36.046875 -47.28125 33.953125 -48.28125 C 31.867188 -49.289062 29.363281 -49.796875 26.4375 -49.796875 C 23.457031 -49.796875 21.207031 -49.25 19.6875 -48.15625 C 18.164062 -47.070312 17.40625 -45.53125 17.40625 -43.53125 C 17.40625 -41.46875 17.988281 -39.929688 19.15625 -38.921875 C 20.320312 -37.921875 22.265625 -37.207031 24.984375 -36.78125 L 30.75 -35.796875 C 36.882812 -34.710938 41.414062 -32.757812 44.34375 -29.9375 C 47.269531 -27.113281 48.734375 -23.207031 48.734375 -18.21875 C 48.734375 -14.425781 47.820312 -11.078125 46 -8.171875 C 44.1875 -5.273438 41.546875 -3.007812 38.078125 -1.375 C 34.609375 0.25 30.484375 1.0625 25.703125 1.0625 Z M 25.703125 1.0625 "/></g></g></g><g fill="#0d1b2a" fill-opacity="1"><g transform="translate(53.289142, 86.311772)"><g><path d="M 6.015625 0 L 6.015625 -63.21875 L 18.0625 -63.21875 L 18.0625 -37.265625 L 18.46875 -37.265625 C 19.394531 -39.867188 20.875 -41.941406 22.90625 -43.484375 C 24.9375 -45.035156 27.609375 -45.8125 30.921875 -45.8125 C 35.472656 -45.8125 38.96875 -44.265625 41.40625 -41.171875 C 43.851562 -38.078125 45.078125 -33.707031 45.078125 -28.0625 L 45.078125 0 L 33.03125 0 L 33.03125 -27.09375 C 33.03125 -30.132812 32.5 -32.382812 31.4375 -33.84375 C 30.382812 -35.3125 28.691406 -36.046875 26.359375 -36.046875 C 24.023438 -36.046875 22.054688 -35.445312 20.453125 -34.25 C 18.859375 -33.0625 18.0625 -31.378906 18.0625 -29.203125 L 18.0625 0 Z M 6.015625 0 "/></g></g></g><g fill="#0d1b2a" fill-opacity="1"><g transform="translate(103.971484, 86.311772)"><g><path d="M 12.046875 -50.203125 C 9.710938 -50.203125 7.960938 -50.742188 6.796875 -51.828125 C 5.628906 -52.910156 5.046875 -54.347656 5.046875 -56.140625 L 5.046875 -57.921875 C 5.046875 -59.710938 5.628906 -61.148438 6.796875 -62.234375 C 7.960938 -63.316406 9.710938 -63.859375 12.046875 -63.859375 C 14.378906 -63.859375 16.125 -63.316406 17.28125 -62.234375 C 18.445312 -61.148438 19.03125 -59.710938 19.03125 -57.921875 L 19.03125 -56.140625 C 19.03125 -54.347656 18.445312 -52.910156 17.28125 -51.828125 C 16.125 -50.742188 14.378906 -50.203125 12.046875 -50.203125 Z M 18.0625 0 L 6.015625 0 L 6.015625 -44.75 L 18.0625 -44.75 Z M 18.0625 0 "/></g></g></g><g fill="#0d1b2a" fill-opacity="1"><g transform="translate(128.051705, 86.311772)"><g><path d="M 6.015625 0 L 6.015625 -44.75 L 18.0625 -44.75 L 18.0625 -35.234375 L 18.46875 -35.234375 C 19.0625 -37.941406 20.320312 -40.203125 22.25 -42.015625 C 24.175781 -43.835938 26.765625 -44.75 30.015625 -44.75 L 32.296875 -44.75 L 32.296875 -33.515625 L 29.046875 -33.515625 C 25.304688 -33.515625 22.539062 -32.984375 20.75 -31.921875 C 18.957031 -30.867188 18.0625 -29.097656 18.0625 -26.609375 L 18.0625 0 Z M 6.015625 0 "/></g></g></g><g fill="#0d1b2a" fill-opacity="1"><g transform="translate(161.73145, 86.311772)"><g><path d="M 24.078125 1.0625 C 19.796875 1.0625 16.082031 0.113281 12.9375 -1.78125 C 9.789062 -3.6875 7.375 -6.398438 5.6875 -9.921875 C 4.007812 -13.453125 3.171875 -17.601562 3.171875 -22.375 C 3.171875 -27.144531 4.007812 -31.289062 5.6875 -34.8125 C 7.375 -38.34375 9.789062 -41.054688 12.9375 -42.953125 C 16.082031 -44.859375 19.796875 -45.8125 24.078125 -45.8125 C 28.367188 -45.8125 32.085938 -44.859375 35.234375 -42.953125 C 38.378906 -41.054688 40.789062 -38.34375 42.46875 -34.8125 C 44.144531 -31.289062 44.984375 -27.144531 44.984375 -22.375 C 44.984375 -17.601562 44.144531 -13.453125 42.46875 -9.921875 C 40.789062 -6.398438 38.378906 -3.6875 35.234375 -1.78125 C 32.085938 0.113281 28.367188 1.0625 24.078125 1.0625 Z M 24.078125 -8.46875 C 26.734375 -8.46875 28.796875 -9.289062 30.265625 -10.9375 C 31.734375 -12.59375 32.46875 -14.941406 32.46875 -17.984375 L 32.46875 -26.765625 C 32.46875 -29.804688 31.734375 -32.148438 30.265625 -33.796875 C 28.796875 -35.453125 26.734375 -36.28125 24.078125 -36.28125 C 21.421875 -36.28125 19.359375 -35.453125 17.890625 -33.796875 C 16.429688 -32.148438 15.703125 -29.804688 15.703125 -26.765625 L 15.703125 -17.984375 C 15.703125 -14.941406 16.429688 -12.59375 17.890625 -10.9375 C 19.359375 -9.289062 21.421875 -8.46875 24.078125 -8.46875 Z M 24.078125 -8.46875 "/></g></g></g><g fill="#0d1b2a" fill-opacity="1"><g transform="translate(209.891876, 86.311772)"><g><path d="M 6.015625 0 L 6.015625 -44.75 L 18.0625 -44.75 L 18.0625 -37.265625 L 18.46875 -37.265625 C 19.394531 -39.867188 20.847656 -41.941406 22.828125 -43.484375 C 24.804688 -45.035156 27.367188 -45.8125 30.515625 -45.8125 C 33.597656 -45.8125 36.222656 -45.035156 38.390625 -43.484375 C 40.566406 -41.941406 42.171875 -39.707031 43.203125 -36.78125 L 43.453125 -36.78125 C 44.316406 -39.382812 45.96875 -41.539062 48.40625 -43.25 C 50.84375 -44.957031 53.742188 -45.8125 57.109375 -45.8125 C 61.453125 -45.8125 64.789062 -44.265625 67.125 -41.171875 C 69.457031 -38.078125 70.625 -33.707031 70.625 -28.0625 L 70.625 0 L 58.578125 0 L 58.578125 -27.09375 C 58.578125 -30.132812 58.046875 -32.382812 56.984375 -33.84375 C 55.929688 -35.3125 54.320312 -36.046875 52.15625 -36.046875 C 49.976562 -36.046875 48.128906 -35.460938 46.609375 -34.296875 C 45.097656 -33.128906 44.34375 -31.429688 44.34375 -29.203125 L 44.34375 0 L 32.296875 0 L 32.296875 -27.09375 C 32.296875 -33.0625 30.128906 -36.046875 25.796875 -36.046875 C 23.679688 -36.046875 21.863281 -35.445312 20.34375 -34.25 C 18.820312 -33.0625 18.0625 -31.378906 18.0625 -29.203125 L 18.0625 0 Z M 6.015625 0 "/></g></g></g><g fill="#0d1b2a" fill-opacity="1"><g transform="translate(286.118774, 86.311772)"><g><path d="M 17 1.0625 C 12.550781 1.0625 9.09375 -0.128906 6.625 -2.515625 C 4.15625 -4.910156 2.921875 -8.085938 2.921875 -12.046875 C 2.921875 -16.648438 4.585938 -20.117188 7.921875 -22.453125 C 11.265625 -24.785156 16.03125 -25.953125 22.21875 -25.953125 L 29.453125 -25.953125 L 29.453125 -28.96875 C 29.453125 -33.90625 26.875 -36.375 21.71875 -36.375 C 19.382812 -36.375 17.445312 -35.882812 15.90625 -34.90625 C 14.363281 -33.925781 13.019531 -32.597656 11.875 -30.921875 L 4.71875 -37.265625 C 6.5625 -40.023438 8.894531 -42.140625 11.71875 -43.609375 C 14.539062 -45.078125 18.144531 -45.8125 22.53125 -45.8125 C 28.71875 -45.8125 33.425781 -44.410156 36.65625 -41.609375 C 39.882812 -38.816406 41.5 -34.789062 41.5 -29.53125 L 41.5 -9.359375 L 45.71875 -9.359375 L 45.71875 0 L 39.046875 0 C 36.773438 0 34.890625 -0.703125 33.390625 -2.109375 C 31.898438 -3.523438 30.992188 -5.425781 30.671875 -7.8125 L 30.1875 -7.8125 C 29.476562 -4.9375 27.957031 -2.738281 25.625 -1.21875 C 23.289062 0.300781 20.414062 1.0625 17 1.0625 Z M 21.3125 -7.328125 C 23.695312 -7.328125 25.648438 -7.851562 27.171875 -8.90625 C 28.691406 -9.96875 29.453125 -11.5 29.453125 -13.5 L 29.453125 -19.125 L 23.03125 -19.125 C 20.425781 -19.125 18.441406 -18.660156 17.078125 -17.734375 C 15.722656 -16.816406 15.046875 -15.488281 15.046875 -13.75 L 15.046875 -12.453125 C 15.046875 -9.035156 17.132812 -7.328125 21.3125 -7.328125 Z M 21.3125 -7.328125 "/></g></g></g><g fill="#0d1b2a" fill-opacity="1"><g transform="translate(334.360537, 86.311772)"><g><path d="M 13.421875 -64.1875 C 15.804688 -64.1875 17.554688 -63.644531 18.671875 -62.5625 C 19.785156 -61.476562 20.34375 -60.015625 20.34375 -58.171875 L 20.34375 -56.375 C 20.34375 -53.289062 19.539062 -50.253906 17.9375 -47.265625 C 16.34375 -44.285156 14.269531 -41.789062 11.71875 -39.78125 L 3.90625 -39.78125 C 5.851562 -41.519531 7.460938 -43.226562 8.734375 -44.90625 C 10.015625 -46.59375 10.953125 -48.410156 11.546875 -50.359375 C 9.867188 -50.679688 8.609375 -51.382812 7.765625 -52.46875 C 6.929688 -53.5625 6.515625 -54.863281 6.515625 -56.375 L 6.515625 -58.171875 C 6.515625 -60.015625 7.066406 -61.476562 8.171875 -62.5625 C 9.285156 -63.644531 11.035156 -64.1875 13.421875 -64.1875 Z M 13.421875 -64.1875 "/></g></g></g><g fill="#0d1b2a" fill-opacity="1"><g transform="translate(354.210337, 86.311772)"><g><path d="M 20.984375 1.0625 C 16.867188 1.0625 13.316406 0.382812 10.328125 -0.96875 C 7.347656 -2.332031 4.664062 -4.367188 2.28125 -7.078125 L 9.515625 -14.234375 C 12.929688 -10.273438 16.921875 -8.296875 21.484375 -8.296875 C 26.085938 -8.296875 28.390625 -9.84375 28.390625 -12.9375 C 28.390625 -14.125 27.992188 -15.054688 27.203125 -15.734375 C 26.421875 -16.421875 25.191406 -16.867188 23.515625 -17.078125 L 18.796875 -17.65625 C 13.804688 -18.300781 10.0625 -19.734375 7.5625 -21.953125 C 5.070312 -24.179688 3.828125 -27.304688 3.828125 -31.328125 C 3.828125 -34.203125 4.53125 -36.722656 5.9375 -38.890625 C 7.34375 -41.054688 9.347656 -42.75 11.953125 -43.96875 C 14.554688 -45.195312 17.566406 -45.8125 20.984375 -45.8125 C 25.328125 -45.8125 28.8125 -45.238281 31.4375 -44.09375 C 34.070312 -42.957031 36.582031 -41.195312 38.96875 -38.8125 L 32.0625 -31.734375 C 30.59375 -33.191406 28.960938 -34.34375 27.171875 -35.1875 C 25.378906 -36.03125 23.535156 -36.453125 21.640625 -36.453125 C 19.523438 -36.453125 17.953125 -36.082031 16.921875 -35.34375 C 15.890625 -34.613281 15.375 -33.597656 15.375 -32.296875 C 15.375 -30.992188 15.753906 -29.988281 16.515625 -29.28125 C 17.273438 -28.582031 18.578125 -28.097656 20.421875 -27.828125 L 25.296875 -27.171875 C 35.066406 -25.867188 39.953125 -21.394531 39.953125 -13.75 C 39.953125 -10.875 39.164062 -8.320312 37.59375 -6.09375 C 36.019531 -3.875 33.796875 -2.125 30.921875 -0.84375 C 28.046875 0.425781 24.734375 1.0625 20.984375 1.0625 Z M 20.984375 1.0625 "/></g></g></g><g fill="#0d1b2a" fill-opacity="1"><g transform="translate(397.082865, 86.311772)"><g/></g></g><g fill="#0d1b2a" fill-opacity="1"><g transform="translate(417.258187, 86.311772)"><g><path d="M 18.875 0 L 6.515625 0 L 6.515625 -59.640625 L 34.328125 -59.640625 C 37.960938 -59.640625 41.132812 -58.851562 43.84375 -57.28125 C 46.5625 -55.707031 48.640625 -53.492188 50.078125 -50.640625 C 51.515625 -47.796875 52.234375 -44.53125 52.234375 -40.84375 C 52.234375 -37.101562 51.515625 -33.820312 50.078125 -31 C 48.640625 -28.175781 46.5625 -25.976562 43.84375 -24.40625 C 41.132812 -22.832031 37.960938 -22.046875 34.328125 -22.046875 L 18.875 -22.046875 Z M 18.875 -48.890625 L 18.875 -32.78125 L 32.953125 -32.78125 C 34.953125 -32.78125 36.535156 -33.304688 37.703125 -34.359375 C 38.867188 -35.421875 39.453125 -36.957031 39.453125 -38.96875 L 39.453125 -42.71875 C 39.453125 -44.71875 38.867188 -46.242188 37.703125 -47.296875 C 36.535156 -48.359375 34.953125 -48.890625 32.953125 -48.890625 Z M 18.875 -48.890625 "/></g></g></g><g fill="#0d1b2a" fill-opacity="1"><g transform="translate(472.821671, 86.311772)"><g><path d="M 30.515625 1.0625 C 25.191406 1.0625 20.578125 -0.113281 16.671875 -2.46875 C 12.773438 -4.832031 9.753906 -8.320312 7.609375 -12.9375 C 5.460938 -17.550781 4.390625 -23.164062 4.390625 -29.78125 C 4.390625 -36.394531 5.460938 -42.019531 7.609375 -46.65625 C 9.753906 -51.289062 12.773438 -54.785156 16.671875 -57.140625 C 20.578125 -59.503906 25.191406 -60.6875 30.515625 -60.6875 C 35.773438 -60.6875 40.359375 -59.503906 44.265625 -57.140625 C 48.171875 -54.785156 51.191406 -51.289062 53.328125 -46.65625 C 55.472656 -42.019531 56.546875 -36.394531 56.546875 -29.78125 C 56.546875 -23.164062 55.472656 -17.550781 53.328125 -12.9375 C 51.191406 -8.320312 48.171875 -4.832031 44.265625 -2.46875 C 40.359375 -0.113281 35.773438 1.0625 30.515625 1.0625 Z M 30.515625 -9.921875 C 34.472656 -9.921875 37.617188 -11.273438 39.953125 -13.984375 C 42.285156 -16.703125 43.453125 -20.472656 43.453125 -25.296875 L 43.453125 -34.328125 C 43.453125 -39.160156 42.285156 -42.929688 39.953125 -45.640625 C 37.617188 -48.347656 34.472656 -49.703125 30.515625 -49.703125 C 26.441406 -49.703125 23.253906 -48.347656 20.953125 -45.640625 C 18.648438 -42.929688 17.5 -39.160156 17.5 -34.328125 L 17.5 -25.296875 C 17.5 -20.472656 18.648438 -16.703125 20.953125 -13.984375 C 23.253906 -11.273438 26.441406 -9.921875 30.515625 -9.921875 Z M 30.515625 -9.921875 "/></g></g></g><g fill="#0d1b2a" fill-opacity="1"><g transform="translate(533.754391, 86.311772)"><g><path d="M 19.125 -22.296875 L 19.125 0 L 6.75 0 L 6.75 -59.640625 L 34.5 -59.640625 C 38.132812 -59.640625 41.289062 -58.851562 43.96875 -57.28125 C 46.65625 -55.707031 48.71875 -53.507812 50.15625 -50.6875 C 51.59375 -47.863281 52.3125 -44.582031 52.3125 -40.84375 C 52.3125 -36.664062 51.390625 -33.097656 49.546875 -30.140625 C 47.703125 -27.179688 44.988281 -25.050781 41.40625 -23.75 L 53.296875 0 L 39.546875 0 L 28.875 -22.296875 Z M 33.03125 -32.703125 C 35.039062 -32.703125 36.628906 -33.226562 37.796875 -34.28125 C 38.960938 -35.34375 39.546875 -36.90625 39.546875 -38.96875 L 39.546875 -42.71875 C 39.546875 -44.71875 38.960938 -46.242188 37.796875 -47.296875 C 36.628906 -48.359375 35.039062 -48.890625 33.03125 -48.890625 L 19.125 -48.890625 L 19.125 -32.703125 Z M 33.03125 -32.703125 "/></g></g></g><g fill="#0d1b2a" fill-opacity="1"><g transform="translate(589.073763, 86.311772)"><g><path d="M 47.59375 -59.640625 L 47.59375 -48.65625 L 31.078125 -48.65625 L 31.078125 0 L 18.71875 0 L 18.71875 -48.65625 L 2.203125 -48.65625 L 2.203125 -59.640625 Z M 47.59375 -59.640625 "/></g></g></g><g fill="#0d1b2a" fill-opacity="1"><g transform="translate(638.861198, 86.311772)"><g><path d="M 19.125 -24.734375 L 19.125 0 L 6.75 0 L 6.75 -59.640625 L 45.8125 -59.640625 L 45.8125 -48.65625 L 19.125 -48.65625 L 19.125 -35.640625 L 42.0625 -35.640625 L 42.0625 -24.734375 Z M 19.125 -24.734375 "/></g></g></g><g fill="#0d1b2a" fill-opacity="1"><g transform="translate(686.12669, 86.311772)"><g><path d="M 30.515625 1.0625 C 25.191406 1.0625 20.578125 -0.113281 16.671875 -2.46875 C 12.773438 -4.832031 9.753906 -8.320312 7.609375 -12.9375 C 5.460938 -17.550781 4.390625 -23.164062 4.390625 -29.78125 C 4.390625 -36.394531 5.460938 -42.019531 7.609375 -46.65625 C 9.753906 -51.289062 12.773438 -54.785156 16.671875 -57.140625 C 20.578125 -59.503906 25.191406 -60.6875 30.515625 -60.6875 C 35.773438 -60.6875 40.359375 -59.503906 44.265625 -57.140625 C 48.171875 -54.785156 51.191406 -51.289062 53.328125 -46.65625 C 55.472656 -42.019531 56.546875 -36.394531 56.546875 -29.78125 C 56.546875 -23.164062 55.472656 -17.550781 53.328125 -12.9375 C 51.191406 -8.320312 48.171875 -4.832031 44.265625 -2.46875 C 40.359375 -0.113281 35.773438 1.0625 30.515625 1.0625 Z M 30.515625 -9.921875 C 34.472656 -9.921875 37.617188 -11.273438 39.953125 -13.984375 C 42.285156 -16.703125 43.453125 -20.472656 43.453125 -25.296875 L 43.453125 -34.328125 C 43.453125 -39.160156 42.285156 -42.929688 39.953125 -45.640625 C 37.617188 -48.347656 34.472656 -49.703125 30.515625 -49.703125 C 26.441406 -49.703125 23.253906 -48.347656 20.953125 -45.640625 C 18.648438 -42.929688 17.5 -39.160156 17.5 -34.328125 L 17.5 -25.296875 C 17.5 -20.472656 18.648438 -16.703125 20.953125 -13.984375 C 23.253906 -11.273438 26.441406 -9.921875 30.515625 -9.921875 Z M 30.515625 -9.921875 "/></g></g></g><g fill="#0d1b2a" fill-opacity="1"><g transform="translate(747.05941, 86.311772)"><g><path d="M 41.90625 -10.984375 L 41.90625 0 L 6.75 0 L 6.75 -59.640625 L 19.125 -59.640625 L 19.125 -10.984375 Z M 41.90625 -10.984375 "/></g></g></g><g fill="#0d1b2a" fill-opacity="1"><g transform="translate(792.047126, 86.311772)"><g><path d="M 32.21875 0 L 4.390625 0 L 4.390625 -9.84375 L 12.125 -9.84375 L 12.125 -49.796875 L 4.390625 -49.796875 L 4.390625 -59.640625 L 32.21875 -59.640625 L 32.21875 -49.796875 L 24.484375 -49.796875 L 24.484375 -9.84375 L 32.21875 -9.84375 Z M 32.21875 0 "/></g></g></g><g fill="#0d1b2a" fill-opacity="1"><g transform="translate(828.655557, 86.311772)"><g><path d="M 30.515625 1.0625 C 25.191406 1.0625 20.578125 -0.113281 16.671875 -2.46875 C 12.773438 -4.832031 9.753906 -8.320312 7.609375 -12.9375 C 5.460938 -17.550781 4.390625 -23.164062 4.390625 -29.78125 C 4.390625 -36.394531 5.460938 -42.019531 7.609375 -46.65625 C 9.753906 -51.289062 12.773438 -54.785156 16.671875 -57.140625 C 20.578125 -59.503906 25.191406 -60.6875 30.515625 -60.6875 C 35.773438 -60.6875 40.359375 -59.503906 44.265625 -57.140625 C 48.171875 -54.785156 51.191406 -51.289062 53.328125 -46.65625 C 55.472656 -42.019531 56.546875 -36.394531 56.546875 -29.78125 C 56.546875 -23.164062 55.472656 -17.550781 53.328125 -12.9375 C 51.191406 -8.320312 48.171875 -4.832031 44.265625 -2.46875 C 40.359375 -0.113281 35.773438 1.0625 30.515625 1.0625 Z M 30.515625 -9.921875 C 34.472656 -9.921875 37.617188 -11.273438 39.953125 -13.984375 C 42.285156 -16.703125 43.453125 -20.472656 43.453125 -25.296875 L 43.453125 -34.328125 C 43.453125 -39.160156 42.285156 -42.929688 39.953125 -45.640625 C 37.617188 -48.347656 34.472656 -49.703125 30.515625 -49.703125 C 26.441406 -49.703125 23.253906 -48.347656 20.953125 -45.640625 C 18.648438 -42.929688 17.5 -39.160156 17.5 -34.328125 L 17.5 -25.296875 C 17.5 -20.472656 18.648438 -16.703125 20.953125 -13.984375 C 23.253906 -11.273438 26.441406 -9.921875 30.515625 -9.921875 Z M 30.515625 -9.921875 "/></g></g></g></g></g></svg>